<svg width="40" height="40" viewBox="0 0 40 40" fill="none" xmlns="http://www.w3.org/2000/svg">
<g id="Frame 5">
<path id="Vector" d="M33.1687 1.73822C27.6445 -4.73524 9.76666 7.80296 9.91169 23.9668C9.9083 24.1651 9.82804 24.3543 9.68783 24.4945C9.54763 24.6347 9.35844 24.7149 9.16019 24.7183C9.02998 24.7169 8.9023 24.6822 8.78925 24.6176C8.67619 24.553 8.58151 24.4606 8.51416 24.3492C7.46913 22.0887 6.92924 19.6277 6.93206 17.1374C6.93072 15.264 7.2335 13.4028 7.82858 11.6264C7.8804 11.4734 7.87761 11.3072 7.82068 11.156C7.76375 11.0048 7.6562 10.878 7.51632 10.7972C7.37645 10.7164 7.2129 10.6865 7.05349 10.7127C6.89409 10.7389 6.74868 10.8195 6.642 10.9408C3.66228 14.1163 2.00299 18.307 2.00115 22.6616C1.97464 24.9457 2.40498 27.2121 3.26687 29.3275C4.12876 31.4429 5.40482 33.3647 7.02004 34.98C8.63527 36.5952 10.5571 37.8712 12.6725 38.7331C14.7879 39.595 17.0543 40.0254 19.3384 39.9988C43.7292 39.4451 38.0996 7.51291 33.1687 1.73822Z" fill="black"/>
</g>
</svg>
