<svg width="90" height="90" viewBox="0 0 90 90" fill="none" xmlns="http://www.w3.org/2000/svg">
<path d="M64.1924 90C61.2725 89.9998 58.4182 89.1341 55.9901 87.5123C53.5621 85.8904 51.6692 83.5852 50.5508 80.8879C49.4324 78.1907 49.1387 75.2224 49.7067 72.3583C50.2747 69.4942 51.6791 66.8627 53.7421 64.7964C57.5266 61.0119 59.6526 55.8791 59.6526 50.5271C59.6526 45.1751 57.5266 40.0423 53.7421 36.2579C49.9577 32.4734 44.8248 30.3474 39.4728 30.3474C34.1208 30.3474 28.9881 32.4734 25.2036 36.2579C23.8578 37.7359 22.2259 38.9254 20.4068 39.7542C18.5878 40.583 16.6194 41.0339 14.6209 41.0795C12.6225 41.1252 10.6354 40.7647 8.78042 40.0198C6.92539 39.275 5.24088 38.1613 3.82894 36.7462C2.41701 35.3311 1.30709 33.6442 0.566326 31.7875C-0.174435 29.9308 -0.530546 27.9431 -0.480473 25.9447C-0.4304 23.9464 0.0248483 21.979 0.857667 20.1617C1.69049 18.3445 2.88351 16.7153 4.36454 15.3727C13.6881 6.04914 26.3335 0.811241 39.519 0.811241C52.7045 0.811241 65.3499 6.04914 74.6734 15.3727C83.997 24.6962 89.2349 37.3417 89.2349 50.5271C89.2349 63.7126 83.997 76.358 74.6734 85.6816C73.2984 87.0583 71.6642 88.1488 69.8652 88.89C68.0662 89.6312 66.1381 90.0085 64.1924 90Z" fill="#FFAF00"/>
</svg>
