<svg width="98" height="98" viewBox="0 0 98 98" fill="none" xmlns="http://www.w3.org/2000/svg">
<g id="Frame" clip-path="url(#clip0_90_2413)">
<path id="Vector" d="M13.2914 70.3097C12.6869 68.0533 12.7649 65.6685 13.5154 63.4564C14.266 61.2443 15.6554 59.3043 17.5081 57.8816C19.3608 56.4589 21.5937 55.6173 23.9245 55.4632C26.2553 55.3091 28.5796 55.8494 30.6035 57.0158C34.3114 59.1566 38.718 59.7367 42.8537 58.6286C46.9894 57.5204 50.5155 54.8148 52.6563 51.1068C54.7971 47.3988 55.3772 42.9922 54.2691 38.8565C53.1609 34.7208 50.4552 31.1947 46.7473 29.0539C45.3264 28.32 44.0694 27.3052 43.0523 26.0712C42.0352 24.8371 41.2792 23.4094 40.8302 21.8746C40.3811 20.3397 40.2482 18.7296 40.4397 17.142C40.6312 15.5543 41.1431 14.022 41.9442 12.6379C42.7453 11.2539 43.8191 10.0469 45.1004 9.09005C46.3818 8.1332 47.844 7.44645 49.3986 7.07137C50.9532 6.6963 52.5678 6.64073 54.1444 6.90801C55.7211 7.17529 57.2272 7.75984 58.5713 8.62631C67.7064 13.9005 74.3723 22.5876 77.1024 32.7766C79.8325 42.9655 78.4033 53.8217 73.1291 62.9569C67.8549 72.092 59.1678 78.7579 48.9789 81.488C38.7899 84.2181 27.9337 82.7889 18.7985 77.5147C17.45 76.7372 16.269 75.7002 15.3237 74.4635C14.3784 73.2268 13.6877 71.815 13.2914 70.3097Z" fill="#FFAF00"/>
<path id="Vector_2" d="M21.9529 75.3202C21.3544 73.0634 21.4372 70.68 22.191 68.4702C22.9447 66.2604 24.3356 64.3231 26.1885 62.9025C28.0414 61.4818 30.2732 60.6414 32.6029 60.487C34.9326 60.3326 37.2559 60.8713 39.28 62.035C41.1164 63.0966 43.144 63.786 45.2468 64.064C47.3497 64.342 49.4868 64.2031 51.536 63.6552C53.5852 63.1073 55.5064 62.1612 57.1899 60.8708C58.8734 59.5804 60.2863 57.971 61.3479 56.1346C62.4095 54.2982 63.099 52.2706 63.377 50.1678C63.655 48.0649 63.5161 45.9279 62.9682 43.8787C62.4203 41.8295 61.4741 39.9082 60.1837 38.2247C58.8933 36.5412 57.284 35.1283 55.4476 34.0667C52.7651 32.4844 50.8158 29.9069 50.0238 26.8949C49.2318 23.8829 49.6611 20.6799 51.2183 17.9828C52.7755 15.2856 55.3346 13.3123 58.3391 12.4922C61.3436 11.6721 64.5504 12.0715 67.262 13.6035C76.3972 18.8776 83.063 27.5648 85.7931 37.7537C88.5233 47.9427 87.094 58.7988 81.8198 67.934C76.5457 77.0692 67.8586 83.735 57.6696 86.4652C47.4807 89.1953 36.6245 87.766 27.4893 82.4918C26.1392 81.7206 24.9549 80.6898 24.0047 79.459C23.0545 78.2282 22.3572 76.8216 21.9529 75.3202Z" stroke="black" stroke-width="2" stroke-miterlimit="10"/>
</g>
<defs>
<clipPath id="clip0_90_2413">
<rect width="80" height="80" fill="white" transform="translate(77.2742) rotate(75)"/>
</clipPath>
</defs>
</svg>
