<svg width="67" height="67" viewBox="0 0 67 67" fill="none" xmlns="http://www.w3.org/2000/svg">
<path d="M33.6449 65.4206C27.3602 65.4206 21.2167 63.5569 15.9912 60.0654C10.7657 56.5738 6.69297 51.6111 4.28794 45.8049C1.88291 39.9986 1.25363 33.6096 2.4797 27.4457C3.70578 21.2818 6.73213 15.62 11.176 11.1761C15.62 6.73214 21.2819 3.70578 27.4457 2.47971C33.6096 1.25364 39.9986 1.88292 45.8049 4.28795C51.6111 6.69298 56.5738 10.7657 60.0654 15.9912C63.5569 21.2167 65.4206 27.3602 65.4206 33.6449C65.4206 42.0723 62.0728 50.1546 56.1137 56.1137C50.1546 62.0728 42.0723 65.4206 33.6449 65.4206ZM33.6449 16.8224C30.3177 16.8224 27.0652 17.809 24.2988 19.6575C21.5324 21.506 19.3762 24.1333 18.103 27.2072C16.8297 30.2811 16.4966 33.6635 17.1457 36.9268C17.7948 40.19 19.3969 43.1874 21.7496 45.5401C24.1022 47.8928 27.0997 49.495 30.363 50.1441C33.6262 50.7932 37.0086 50.46 40.0825 49.1868C43.1564 47.9135 45.7837 45.7573 47.6322 42.9909C49.4806 40.2245 50.4673 36.972 50.4673 33.6449C50.4673 29.1833 48.6949 24.9044 45.5401 21.7496C42.3853 18.5948 38.1064 16.8224 33.6449 16.8224V16.8224Z" stroke="#FFAF00" stroke-width="2" stroke-miterlimit="10"/>
</svg>
